<?xml version="1.0" encoding="UTF-8" standalone="no"?>
<!DOCTYPE svg PUBLIC "-//W3C//DTD SVG 1.1//EN"
"http://www.w3.org/Graphics/SVG/1.1/DTD/svg11.dtd">
<svg viewBox="0 0 935 1210" version="1.1" xmlns="http://www.w3.org/2000/svg" xmlns:xlink="http://www.w3.org/1999/xlink">
<defs>
<style type="text/css"><![CDATA[
.g1_38{
fill: none;
stroke: #231F20;
stroke-width: 1.1458334;
stroke-linecap: butt;
stroke-linejoin: miter;
}
.g2_38{
fill: none;
stroke: #231F20;
stroke-width: 1.1458334;
stroke-linecap: butt;
stroke-linejoin: miter;
stroke-miterlimit: 4;
}
]]></style>
</defs>
<path d="M89.4,352.6l165.5,0" class="g1_38" />
<path d="M89.9,441.6l0,-88.5" class="g1_38" />
<path d="M254.9,352.6l585,0" class="g1_38" />
<path d="M254.9,441.6l0,-88.5" class="g1_38" />
<path d="M839.3,441.6l0,-88.5" class="g1_38" />
<path d="M89.4,442.2l165.5,0" class="g1_38" />
<path d="M89.9,495.4l0,-52.6" class="g1_38" />
<path d="M254.9,442.2l585,0" class="g1_38" />
<path d="M254.9,495.4l0,-52.6" class="g1_38" />
<path d="M839.3,495.4l0,-52.6" class="g1_38" />
<path d="M89.4,496l165.5,0" class="g1_38" />
<path d="M89.9,532.3l0,-35.8" class="g1_38" />
<path d="M254.9,496l585,0" class="g1_38" />
<path d="M254.9,532.3l0,-35.8" class="g1_38" />
<path d="M839.3,532.3l0,-35.8" class="g1_38" />
<path d="M89.4,532.9l165.5,0" class="g1_38" />
<path d="M89.9,613.5l0,-80" class="g1_38" />
<path d="M254.9,532.9l585,0" class="g1_38" />
<path d="M254.9,613.5l0,-80" class="g1_38" />
<path d="M839.3,613.5l0,-80" class="g1_38" />
<path d="M89.4,614.1l165.5,0" class="g1_38" />
<path d="M89.9,667.3l0,-52.6" class="g1_38" />
<path d="M254.9,614.1l585,0" class="g1_38" />
<path d="M254.9,667.3l0,-52.6" class="g1_38" />
<path d="M839.3,667.3l0,-52.6" class="g1_38" />
<path d="M89.4,667.9l165.5,0" class="g1_38" />
<path d="M89.9,736.3l0,-67.9" class="g1_38" />
<path d="M254.9,667.9l585,0" class="g1_38" />
<path d="M254.9,736.3l0,-67.9" class="g1_38" />
<path d="M839.3,736.3l0,-67.9" class="g1_38" />
<path d="M89.4,736.9l165.5,0" class="g1_38" />
<path d="M89.9,803.8l0,-66.4" class="g1_38" />
<path d="M254.9,736.9l585,0" class="g1_38" />
<path d="M254.9,803.8l0,-66.4" class="g1_38" />
<path d="M839.3,803.8l0,-66.4" class="g1_38" />
<path d="M89.4,804.4l165.5,0" class="g1_38" />
<path d="M254.9,804.4l585,0" class="g1_38" />
<image preserveAspectRatio="none" x="88" y="119" width="415" height="208" xlink:href="img/1.png" />
<path d="M89.9,120.7l411.4,0l0,205.1l-411.4,0l0,-205.1Z" class="g2_38" />
</svg>