<?xml version="1.0" encoding="UTF-8" standalone="no"?>
<!DOCTYPE svg PUBLIC "-//W3C//DTD SVG 1.1//EN"
"http://www.w3.org/Graphics/SVG/1.1/DTD/svg11.dtd">
<svg viewBox="0 0 935 1210" version="1.1" xmlns="http://www.w3.org/2000/svg" xmlns:xlink="http://www.w3.org/1999/xlink">
<defs>
<style type="text/css"><![CDATA[
.g1_34{
fill: none;
stroke: #231F20;
stroke-width: 1.1458334;
stroke-linecap: butt;
stroke-linejoin: miter;
}
.g2_34{
fill: none;
stroke: #231F20;
stroke-width: 1.1458334;
stroke-linecap: butt;
stroke-linejoin: miter;
stroke-miterlimit: 4;
}
]]></style>
</defs>
<path d="M89.4,351.2l165.5,0" class="g1_34" />
<path d="M89.9,387.6l0,-35.8" class="g1_34" />
<path d="M254.9,351.2l585,0" class="g1_34" />
<path d="M254.9,387.6l0,-35.8" class="g1_34" />
<path d="M839.3,387.6l0,-35.8" class="g1_34" />
<path d="M89.4,388.1l165.5,0" class="g1_34" />
<path d="M89.9,441.3l0,-52.6" class="g1_34" />
<path d="M254.9,388.1l585,0" class="g1_34" />
<path d="M254.9,441.3l0,-52.6" class="g1_34" />
<path d="M839.3,441.3l0,-52.6" class="g1_34" />
<path d="M89.4,441.9l165.5,0" class="g1_34" />
<path d="M89.9,478.2l0,-35.8" class="g1_34" />
<path d="M254.9,441.9l585,0" class="g1_34" />
<path d="M254.9,478.2l0,-35.8" class="g1_34" />
<path d="M839.3,478.2l0,-35.8" class="g1_34" />
<path d="M89.4,478.8l165.5,0" class="g1_34" />
<path d="M89.9,559.5l0,-80.1" class="g1_34" />
<path d="M254.9,478.8l585,0" class="g1_34" />
<path d="M254.9,559.5l0,-80.1" class="g1_34" />
<path d="M839.3,559.5l0,-80.1" class="g1_34" />
<path d="M89.4,560l165.5,0" class="g1_34" />
<path d="M89.9,613.2l0,-52.6" class="g1_34" />
<path d="M254.9,560l585,0" class="g1_34" />
<path d="M254.9,613.2l0,-52.6" class="g1_34" />
<path d="M839.3,613.2l0,-52.6" class="g1_34" />
<path d="M89.4,613.8l165.5,0" class="g1_34" />
<path d="M89.9,682.2l0,-67.9" class="g1_34" />
<path d="M254.9,613.8l585,0" class="g1_34" />
<path d="M254.9,682.2l0,-67.9" class="g1_34" />
<path d="M839.3,682.2l0,-67.9" class="g1_34" />
<path d="M89.4,682.8l165.5,0" class="g1_34" />
<path d="M89.9,734.4l0,-51" class="g1_34" />
<path d="M254.9,682.8l585,0" class="g1_34" />
<path d="M254.9,734.4l0,-51" class="g1_34" />
<path d="M839.3,734.4l0,-51" class="g1_34" />
<path d="M89.4,735l165.5,0" class="g1_34" />
<path d="M254.9,735l585,0" class="g1_34" />
<image preserveAspectRatio="none" x="88" y="120" width="415" height="206" xlink:href="img/1.png" />
<path d="M89.9,119.1l411.4,0l0,205.1l-411.4,0l0,-205.1Z" class="g2_34" />
</svg>