<?xml version="1.0" encoding="UTF-8" standalone="no"?>
<!DOCTYPE svg PUBLIC "-//W3C//DTD SVG 1.1//EN"
"http://www.w3.org/Graphics/SVG/1.1/DTD/svg11.dtd">
<svg viewBox="0 0 935 1210" version="1.1" xmlns="http://www.w3.org/2000/svg" xmlns:xlink="http://www.w3.org/1999/xlink">
<defs>
<style type="text/css"><![CDATA[
.g1_69{
fill: none;
stroke: #231F20;
stroke-width: 1.1458334;
stroke-linecap: butt;
stroke-linejoin: miter;
}
.g2_69{
fill: none;
stroke: #231F20;
stroke-width: 0.7638889;
stroke-linecap: butt;
stroke-linejoin: miter;
}
.g3_69{
fill: none;
stroke: #231F20;
stroke-width: 1.1458334;
stroke-linecap: butt;
stroke-linejoin: miter;
stroke-miterlimit: 4;
}
]]></style>
</defs>
<path d="M96.3,371.8l165.5,0" class="g1_69" />
<path d="M96.8,408.2l0,-35.8" class="g1_69" />
<path d="M261.8,371.8l585,0" class="g1_69" />
<path d="M261.8,408.2l0,-35.8" class="g1_69" />
<path d="M846.2,408.2l0,-35.8" class="g1_69" />
<path d="M96.3,408.8l165.5,0" class="g1_69" />
<path d="M96.8,461.9l0,-52.6" class="g1_69" />
<path d="M261.8,408.8l585,0" class="g1_69" />
<path d="M261.8,461.9l0,-52.6" class="g1_69" />
<path d="M846.2,461.9l0,-52.6" class="g1_69" />
<path d="M96.3,462.5l165.5,0" class="g1_69" />
<path d="M96.8,498.9l0,-35.8" class="g1_69" />
<path d="M261.8,462.5l585,0" class="g1_69" />
<path d="M261.8,498.9l0,-35.8" class="g1_69" />
<path d="M846.2,498.9l0,-35.8" class="g1_69" />
<path d="M96.3,499.4l165.5,0" class="g1_69" />
<path d="M96.8,552.6l0,-52.6" class="g1_69" />
<path d="M261.8,499.4l585,0" class="g1_69" />
<path d="M261.8,552.6l0,-52.6" class="g1_69" />
<path d="M846.2,552.6l0,-52.6" class="g1_69" />
<path d="M96.3,553.2l165.5,0" class="g1_69" />
<path d="M96.8,589.5l0,-35.8" class="g1_69" />
<path d="M261.8,553.2l585,0" class="g1_69" />
<path d="M261.8,589.5l0,-35.8" class="g1_69" />
<path d="M846.2,589.5l0,-35.8" class="g1_69" />
<path d="M96.3,590.1l165.5,0" class="g1_69" />
<path d="M96.8,692.9l0,-102.2" class="g1_69" />
<path d="M261.8,590.1l585,0" class="g1_69" />
<path d="M261.8,692.9l0,-102.2" class="g1_69" />
<path d="M846.2,692.9l0,-102.2" class="g1_69" />
<path d="M96.3,693.5l165.5,0" class="g1_69" />
<path d="M96.8,746.7l0,-52.6" class="g1_69" />
<path d="M261.8,693.5l585,0" class="g1_69" />
<path d="M261.8,746.7l0,-52.6" class="g1_69" />
<path d="M846.2,746.7l0,-52.6" class="g1_69" />
<path d="M96.3,747.2l165.5,0" class="g1_69" />
<path d="M96.8,815.7l0,-67.9" class="g1_69" />
<path d="M261.8,747.2l585,0" class="g1_69" />
<path d="M261.8,815.7l0,-67.9" class="g1_69" />
<path d="M846.2,815.7l0,-67.9" class="g1_69" />
<path d="M96.3,816.2l165.5,0" class="g1_69" />
<path d="M96.8,886.2l0,-69.4" class="g1_69" />
<path d="M261.8,816.2l585,0" class="g1_69" />
<path d="M261.8,886.2l0,-69.4" class="g1_69" />
<path d="M846.2,886.2l0,-69.4" class="g1_69" />
<path d="M96.3,886.8l165.5,0" class="g1_69" />
<path d="M261.8,886.8l585,0" class="g1_69" />
<path d="M547.2,614.8l54.1,0" class="g2_69" />
<path d="M652.4,614.8l60.6,0" class="g2_69" />
<image preserveAspectRatio="none" x="95" y="145" width="415" height="208" xlink:href="img/1.png" />
<path d="M96.8,146.5l411.4,0l0,205.1l-411.4,0l0,-205.1Z" class="g3_69" />
</svg>