<?xml version="1.0" encoding="UTF-8" standalone="no"?>
<!DOCTYPE svg PUBLIC "-//W3C//DTD SVG 1.1//EN"
"http://www.w3.org/Graphics/SVG/1.1/DTD/svg11.dtd">
<svg viewBox="0 0 935 1210" version="1.1" xmlns="http://www.w3.org/2000/svg" xmlns:xlink="http://www.w3.org/1999/xlink">
<defs>
<style type="text/css"><![CDATA[
.g1_36{
fill: none;
stroke: #231F20;
stroke-width: 1.1458334;
stroke-linecap: butt;
stroke-linejoin: miter;
}
.g2_36{
fill: none;
stroke: #231F20;
stroke-width: 1.1458334;
stroke-linecap: butt;
stroke-linejoin: miter;
stroke-miterlimit: 4;
}
]]></style>
</defs>
<path d="M89.4,351.2l165.5,0" class="g1_36" />
<path d="M89.9,402.8l0,-51" class="g1_36" />
<path d="M254.9,351.2l585,0" class="g1_36" />
<path d="M254.9,402.8l0,-51" class="g1_36" />
<path d="M839.3,402.8l0,-51" class="g1_36" />
<path d="M89.4,403.4l165.5,0" class="g1_36" />
<path d="M89.9,456.6l0,-52.6" class="g1_36" />
<path d="M254.9,403.4l585,0" class="g1_36" />
<path d="M254.9,456.6l0,-52.6" class="g1_36" />
<path d="M839.3,456.6l0,-52.6" class="g1_36" />
<path d="M89.4,457.1l165.5,0" class="g1_36" />
<path d="M89.9,493.5l0,-35.8" class="g1_36" />
<path d="M254.9,457.1l585,0" class="g1_36" />
<path d="M254.9,493.5l0,-35.8" class="g1_36" />
<path d="M839.3,493.5l0,-35.8" class="g1_36" />
<path d="M89.4,494.1l165.5,0" class="g1_36" />
<path d="M89.9,574.7l0,-80" class="g1_36" />
<path d="M254.9,494.1l585,0" class="g1_36" />
<path d="M254.9,574.7l0,-80" class="g1_36" />
<path d="M839.3,574.7l0,-80" class="g1_36" />
<path d="M89.4,575.3l165.5,0" class="g1_36" />
<path d="M89.9,628.5l0,-52.6" class="g1_36" />
<path d="M254.9,575.3l585,0" class="g1_36" />
<path d="M254.9,628.5l0,-52.6" class="g1_36" />
<path d="M839.3,628.5l0,-52.6" class="g1_36" />
<path d="M89.4,629.1l165.5,0" class="g1_36" />
<path d="M89.9,697.5l0,-67.9" class="g1_36" />
<path d="M254.9,629.1l585,0" class="g1_36" />
<path d="M254.9,697.5l0,-67.9" class="g1_36" />
<path d="M839.3,697.5l0,-67.9" class="g1_36" />
<path d="M89.4,698.1l165.5,0" class="g1_36" />
<path d="M89.9,749.7l0,-51.1" class="g1_36" />
<path d="M254.9,698.1l585,0" class="g1_36" />
<path d="M254.9,749.7l0,-51.1" class="g1_36" />
<path d="M839.3,749.7l0,-51.1" class="g1_36" />
<path d="M89.4,750.3l165.5,0" class="g1_36" />
<path d="M254.9,750.3l585,0" class="g1_36" />
<image preserveAspectRatio="none" x="88" y="119" width="415" height="209" xlink:href="img/1.png" />
<path d="M89.9,121.1l411.4,0l0,205.1l-411.4,0l0,-205.1Z" class="g2_36" />
</svg>