<?xml version="1.0" encoding="UTF-8" standalone="no"?>
<!DOCTYPE svg PUBLIC "-//W3C//DTD SVG 1.1//EN"
"http://www.w3.org/Graphics/SVG/1.1/DTD/svg11.dtd">
<svg viewBox="0 0 935 1210" version="1.1" xmlns="http://www.w3.org/2000/svg" xmlns:xlink="http://www.w3.org/1999/xlink">
<defs>
<style type="text/css"><![CDATA[
.g1_59{
fill: none;
stroke: #231F20;
stroke-width: 1.1458334;
stroke-linecap: butt;
stroke-linejoin: miter;
}
.g2_59{
fill: none;
stroke: #231F20;
stroke-width: 1.1458334;
stroke-linecap: butt;
stroke-linejoin: miter;
stroke-miterlimit: 4;
}
]]></style>
</defs>
<path d="M96.3,371.8l165.5,0" class="g1_59" />
<path d="M96.8,430.3l0,-57.9" class="g1_59" />
<path d="M261.8,371.8l585,0" class="g1_59" />
<path d="M261.8,430.3l0,-57.9" class="g1_59" />
<path d="M846.2,430.3l0,-57.9" class="g1_59" />
<path d="M96.3,430.9l165.5,0" class="g1_59" />
<path d="M96.8,550.5l0,-119" class="g1_59" />
<path d="M261.8,430.9l585,0" class="g1_59" />
<path d="M261.8,550.5l0,-119" class="g1_59" />
<path d="M846.2,550.5l0,-119" class="g1_59" />
<path d="M96.3,551.1l165.5,0" class="g1_59" />
<path d="M96.8,631.8l0,-80.1" class="g1_59" />
<path d="M261.8,551.1l585,0" class="g1_59" />
<path d="M261.8,631.8l0,-80.1" class="g1_59" />
<path d="M846.2,631.8l0,-80.1" class="g1_59" />
<path d="M96.3,632.3l165.5,0" class="g1_59" />
<path d="M96.8,685.5l0,-52.6" class="g1_59" />
<path d="M261.8,632.3l585,0" class="g1_59" />
<path d="M261.8,685.5l0,-52.6" class="g1_59" />
<path d="M846.2,685.5l0,-52.6" class="g1_59" />
<path d="M96.3,686.1l165.5,0" class="g1_59" />
<path d="M96.8,754.5l0,-67.8" class="g1_59" />
<path d="M261.8,686.1l585,0" class="g1_59" />
<path d="M261.8,754.5l0,-67.8" class="g1_59" />
<path d="M846.2,754.5l0,-67.8" class="g1_59" />
<path d="M96.3,755.1l165.5,0" class="g1_59" />
<path d="M96.8,825.1l0,-69.4" class="g1_59" />
<path d="M261.8,755.1l585,0" class="g1_59" />
<path d="M261.8,825.1l0,-69.4" class="g1_59" />
<path d="M846.2,825.1l0,-69.4" class="g1_59" />
<path d="M96.3,825.6l165.5,0" class="g1_59" />
<path d="M261.8,825.6l585,0" class="g1_59" />
<image preserveAspectRatio="none" x="95" y="143" width="415" height="208" xlink:href="img/1.png" />
<path d="M96.8,145.3l411.4,0l0,205.1l-411.4,0l0,-205.1Z" class="g2_59" />
</svg>