<?xml version="1.0" encoding="UTF-8" standalone="no"?>
<!DOCTYPE svg PUBLIC "-//W3C//DTD SVG 1.1//EN"
"http://www.w3.org/Graphics/SVG/1.1/DTD/svg11.dtd">
<svg viewBox="0 0 935 1210" version="1.1" xmlns="http://www.w3.org/2000/svg" xmlns:xlink="http://www.w3.org/1999/xlink">
<defs>
<style type="text/css"><![CDATA[
.g1_55{
fill: none;
stroke: #231F20;
stroke-width: 1.1458334;
stroke-linecap: butt;
stroke-linejoin: miter;
}
.g2_55{
fill: none;
stroke: #231F20;
stroke-width: 1.1458334;
stroke-linecap: butt;
stroke-linejoin: miter;
stroke-miterlimit: 4;
}
]]></style>
</defs>
<path d="M96.3,351.2l165.5,0" class="g1_55" />
<path d="M96.8,387.6l0,-35.8" class="g1_55" />
<path d="M261.8,351.2l585,0" class="g1_55" />
<path d="M261.8,387.6l0,-35.8" class="g1_55" />
<path d="M846.2,387.6l0,-35.8" class="g1_55" />
<path d="M96.3,388.1l165.5,0" class="g1_55" />
<path d="M96.8,441.3l0,-52.6" class="g1_55" />
<path d="M261.8,388.1l585,0" class="g1_55" />
<path d="M261.8,441.3l0,-52.6" class="g1_55" />
<path d="M846.2,441.3l0,-52.6" class="g1_55" />
<path d="M96.3,441.9l165.5,0" class="g1_55" />
<path d="M96.8,522.5l0,-80.1" class="g1_55" />
<path d="M261.8,441.9l585,0" class="g1_55" />
<path d="M261.8,522.5l0,-80.1" class="g1_55" />
<path d="M846.2,522.5l0,-80.1" class="g1_55" />
<path d="M96.3,523.1l165.5,0" class="g1_55" />
<path d="M96.8,576.3l0,-52.6" class="g1_55" />
<path d="M261.8,523.1l585,0" class="g1_55" />
<path d="M261.8,576.3l0,-52.6" class="g1_55" />
<path d="M846.2,576.3l0,-52.6" class="g1_55" />
<path d="M96.3,576.8l165.5,0" class="g1_55" />
<path d="M96.8,613.2l0,-35.8" class="g1_55" />
<path d="M261.8,576.8l585,0" class="g1_55" />
<path d="M261.8,613.2l0,-35.8" class="g1_55" />
<path d="M846.2,613.2l0,-35.8" class="g1_55" />
<path d="M96.3,613.8l165.5,0" class="g1_55" />
<path d="M96.8,694.4l0,-80.1" class="g1_55" />
<path d="M261.8,613.8l585,0" class="g1_55" />
<path d="M261.8,694.4l0,-80.1" class="g1_55" />
<path d="M846.2,694.4l0,-80.1" class="g1_55" />
<path d="M96.3,695l165.5,0" class="g1_55" />
<path d="M96.8,748.2l0,-52.6" class="g1_55" />
<path d="M261.8,695l585,0" class="g1_55" />
<path d="M261.8,748.2l0,-52.6" class="g1_55" />
<path d="M846.2,748.2l0,-52.6" class="g1_55" />
<path d="M96.3,748.8l165.5,0" class="g1_55" />
<path d="M96.8,817.2l0,-67.9" class="g1_55" />
<path d="M261.8,748.8l585,0" class="g1_55" />
<path d="M261.8,817.2l0,-67.9" class="g1_55" />
<path d="M846.2,817.2l0,-67.9" class="g1_55" />
<path d="M96.3,817.8l165.5,0" class="g1_55" />
<path d="M96.8,884.7l0,-66.4" class="g1_55" />
<path d="M261.8,817.8l585,0" class="g1_55" />
<path d="M261.8,884.7l0,-66.4" class="g1_55" />
<path d="M846.2,884.7l0,-66.4" class="g1_55" />
<path d="M96.3,885.3l165.5,0" class="g1_55" />
<path d="M261.8,885.3l585,0" class="g1_55" />
<image preserveAspectRatio="none" x="95" y="121" width="415" height="208" xlink:href="img/1.png" />
<path d="M96.8,122.2l411.4,0l0,205.1l-411.4,0l0,-205.1Z" class="g2_55" />
</svg>