<?xml version="1.0" encoding="UTF-8" standalone="no"?>
<!DOCTYPE svg PUBLIC "-//W3C//DTD SVG 1.1//EN"
"http://www.w3.org/Graphics/SVG/1.1/DTD/svg11.dtd">
<svg viewBox="0 0 935 1210" version="1.1" xmlns="http://www.w3.org/2000/svg" xmlns:xlink="http://www.w3.org/1999/xlink">
<defs>
<style type="text/css"><![CDATA[
.g1_43{
fill: none;
stroke: #231F20;
stroke-width: 1.1458334;
stroke-linecap: butt;
stroke-linejoin: miter;
}
.g2_43{
fill: none;
stroke: #231F20;
stroke-width: 1.1458334;
stroke-linecap: butt;
stroke-linejoin: miter;
stroke-miterlimit: 4;
}
]]></style>
</defs>
<path d="M96.3,351.2l165,0" class="g1_43" />
<path d="M96.8,422.7l0,-70.9" class="g1_43" />
<path d="M261.3,351.2l584.3,0" class="g1_43" />
<path d="M261.3,422.7l0,-70.9" class="g1_43" />
<path d="M845.1,422.7l0,-70.9" class="g1_43" />
<path d="M96.3,423.3l165,0" class="g1_43" />
<path d="M96.8,476.4l0,-52.6" class="g1_43" />
<path d="M261.3,423.3l584.3,0" class="g1_43" />
<path d="M261.3,476.4l0,-52.6" class="g1_43" />
<path d="M845.1,476.4l0,-52.6" class="g1_43" />
<path d="M96.3,477l165,0" class="g1_43" />
<path d="M96.8,535.5l0,-57.9" class="g1_43" />
<path d="M261.3,477l584.3,0" class="g1_43" />
<path d="M261.3,535.5l0,-57.9" class="g1_43" />
<path d="M845.1,535.5l0,-57.9" class="g1_43" />
<path d="M96.3,536.1l165,0" class="g1_43" />
<path d="M96.8,589.3l0,-52.6" class="g1_43" />
<path d="M261.3,536.1l584.3,0" class="g1_43" />
<path d="M261.3,589.3l0,-52.6" class="g1_43" />
<path d="M845.1,589.3l0,-52.6" class="g1_43" />
<path d="M96.3,589.8l165,0" class="g1_43" />
<path d="M96.8,626.2l0,-35.8" class="g1_43" />
<path d="M261.3,589.8l584.3,0" class="g1_43" />
<path d="M261.3,626.2l0,-35.8" class="g1_43" />
<path d="M845.1,626.2l0,-35.8" class="g1_43" />
<path d="M96.3,626.8l165,0" class="g1_43" />
<path d="M96.8,707.4l0,-80.1" class="g1_43" />
<path d="M261.3,626.8l584.3,0" class="g1_43" />
<path d="M261.3,707.4l0,-80.1" class="g1_43" />
<path d="M845.1,707.4l0,-80.1" class="g1_43" />
<path d="M96.3,708l165,0" class="g1_43" />
<path d="M96.8,761.2l0,-52.6" class="g1_43" />
<path d="M261.3,708l584.3,0" class="g1_43" />
<path d="M261.3,761.2l0,-52.6" class="g1_43" />
<path d="M845.1,761.2l0,-52.6" class="g1_43" />
<path d="M96.3,761.7l165,0" class="g1_43" />
<path d="M96.8,830.2l0,-67.9" class="g1_43" />
<path d="M261.3,761.7l584.3,0" class="g1_43" />
<path d="M261.3,830.2l0,-67.9" class="g1_43" />
<path d="M845.1,830.2l0,-67.9" class="g1_43" />
<path d="M96.3,830.8l165,0" class="g1_43" />
<path d="M96.8,897.7l0,-66.4" class="g1_43" />
<path d="M261.3,830.8l584.3,0" class="g1_43" />
<path d="M261.3,897.7l0,-66.4" class="g1_43" />
<path d="M845.1,897.7l0,-66.4" class="g1_43" />
<path d="M96.3,898.2l165,0" class="g1_43" />
<path d="M261.3,898.2l584.3,0" class="g1_43" />
<image preserveAspectRatio="none" x="95" y="118" width="415" height="209" xlink:href="img/1.png" />
<path d="M96.8,119.9l411.4,0l0,205.1L96.8,325l0,-205.1Z" class="g2_43" />
</svg>