<?xml version="1.0" encoding="UTF-8" standalone="no"?>
<!DOCTYPE svg PUBLIC "-//W3C//DTD SVG 1.1//EN"
"http://www.w3.org/Graphics/SVG/1.1/DTD/svg11.dtd">
<svg viewBox="0 0 935 1210" version="1.1" xmlns="http://www.w3.org/2000/svg" xmlns:xlink="http://www.w3.org/1999/xlink">
<defs>
<style type="text/css"><![CDATA[
.g1_22{
fill: none;
stroke: #231F20;
stroke-width: 1.1458334;
stroke-linecap: butt;
stroke-linejoin: miter;
}
.g2_22{
fill: none;
stroke: #231F20;
stroke-width: 1.1763889;
stroke-linecap: butt;
stroke-linejoin: miter;
stroke-miterlimit: 4;
}
]]></style>
</defs>
<path d="M89.4,351.2l165.5,0" class="g1_22" />
<path d="M89.9,373.8l0,-22" class="g1_22" />
<path d="M254.9,351.2l585,0" class="g1_22" />
<path d="M254.9,373.8l0,-22" class="g1_22" />
<path d="M839.3,373.8l0,-22" class="g1_22" />
<path d="M89.4,374.4l165.5,0" class="g1_22" />
<path d="M89.9,412.3l0,-37.3" class="g1_22" />
<path d="M254.9,374.4l585,0" class="g1_22" />
<path d="M254.9,412.3l0,-37.3" class="g1_22" />
<path d="M839.3,412.3l0,-37.3" class="g1_22" />
<path d="M89.4,412.8l165.5,0" class="g1_22" />
<path d="M89.9,435.4l0,-22" class="g1_22" />
<path d="M254.9,412.8l585,0" class="g1_22" />
<path d="M254.9,435.4l0,-22" class="g1_22" />
<path d="M839.3,435.4l0,-22" class="g1_22" />
<path d="M89.4,436l165.5,0" class="g1_22" />
<path d="M89.9,473.9l0,-37.3" class="g1_22" />
<path d="M254.9,436l585,0" class="g1_22" />
<path d="M254.9,473.9l0,-37.3" class="g1_22" />
<path d="M839.3,473.9l0,-37.3" class="g1_22" />
<path d="M89.4,474.5l165.5,0" class="g1_22" />
<path d="M89.9,497.1l0,-22" class="g1_22" />
<path d="M254.9,474.5l585,0" class="g1_22" />
<path d="M254.9,497.1l0,-22" class="g1_22" />
<path d="M839.3,497.1l0,-22" class="g1_22" />
<path d="M89.4,497.7l165.5,0" class="g1_22" />
<path d="M89.9,557.4l0,-59.2" class="g1_22" />
<path d="M254.9,497.7l585,0" class="g1_22" />
<path d="M254.9,557.4l0,-59.2" class="g1_22" />
<path d="M839.3,557.4l0,-59.2" class="g1_22" />
<path d="M89.4,558l165.5,0" class="g1_22" />
<path d="M89.9,636.3l0,-77.7" class="g1_22" />
<path d="M254.9,558l585,0" class="g1_22" />
<path d="M254.9,636.3l0,-77.7" class="g1_22" />
<path d="M839.3,636.3l0,-77.7" class="g1_22" />
<path d="M89.4,636.9l165.5,0" class="g1_22" />
<path d="M89.9,821.5l0,-184" class="g1_22" />
<path d="M254.9,636.9l585,0" class="g1_22" />
<path d="M254.9,821.5l0,-184" class="g1_22" />
<path d="M839.3,821.5l0,-184" class="g1_22" />
<path d="M89.4,822l165.5,0" class="g1_22" />
<path d="M89.9,1006.6l0,-184" class="g1_22" />
<path d="M254.9,822l585,0" class="g1_22" />
<path d="M254.9,1006.6l0,-184" class="g1_22" />
<path d="M839.3,1006.6l0,-184" class="g1_22" />
<path d="M89.4,1007.2l165.5,0" class="g1_22" />
<path d="M254.9,1007.2l585,0" class="g1_22" />
<image preserveAspectRatio="none" x="89" y="120" width="414" height="206" xlink:href="img/1.png" />
<path d="M90,324.6l411.3,0l0,-205L90,119.6l0,205Z" class="g2_22" />
</svg>