<?xml version="1.0" encoding="UTF-8" standalone="no"?>
<!DOCTYPE svg PUBLIC "-//W3C//DTD SVG 1.1//EN"
"http://www.w3.org/Graphics/SVG/1.1/DTD/svg11.dtd">
<svg viewBox="0 0 935 1210" version="1.1" xmlns="http://www.w3.org/2000/svg" xmlns:xlink="http://www.w3.org/1999/xlink">
<defs>
<style type="text/css"><![CDATA[
.g1_89{
fill: none;
stroke: #231F20;
stroke-width: 1.1458334;
stroke-linecap: butt;
stroke-linejoin: miter;
}
.g2_89{
fill: none;
stroke: #231F20;
stroke-width: 1.1458334;
stroke-linecap: butt;
stroke-linejoin: miter;
stroke-miterlimit: 4;
}
]]></style>
</defs>
<path d="M96.3,385.6l165.5,0" class="g1_89" />
<path d="M96.8,437.2l0,-51.1" class="g1_89" />
<path d="M261.8,385.6l585,0" class="g1_89" />
<path d="M261.8,437.2l0,-51.1" class="g1_89" />
<path d="M846.2,437.2l0,-51.1" class="g1_89" />
<path d="M96.3,437.8l165.5,0" class="g1_89" />
<path d="M96.8,474.1l0,-35.7" class="g1_89" />
<path d="M261.8,437.8l585,0" class="g1_89" />
<path d="M261.8,474.1l0,-35.7" class="g1_89" />
<path d="M846.2,474.1l0,-35.7" class="g1_89" />
<path d="M96.3,474.7l165.5,0" class="g1_89" />
<path d="M96.8,555.4l0,-80.1" class="g1_89" />
<path d="M261.8,474.7l585,0" class="g1_89" />
<path d="M261.8,555.4l0,-80.1" class="g1_89" />
<path d="M846.2,555.4l0,-80.1" class="g1_89" />
<path d="M96.3,556l165.5,0" class="g1_89" />
<path d="M96.8,642.7l0,-86.2" class="g1_89" />
<path d="M261.8,556l585,0" class="g1_89" />
<path d="M261.8,642.7l0,-86.2" class="g1_89" />
<path d="M846.2,642.7l0,-86.2" class="g1_89" />
<path d="M96.3,643.3l165.5,0" class="g1_89" />
<path d="M261.8,643.3l585,0" class="g1_89" />
<image preserveAspectRatio="none" x="95" y="145" width="415" height="208" xlink:href="img/1.png" />
<path d="M96.8,146.4l411.4,0l0,205.1l-411.4,0l0,-205.1Z" class="g2_89" />
</svg>