<?xml version="1.0" encoding="UTF-8" standalone="no"?>
<!DOCTYPE svg PUBLIC "-//W3C//DTD SVG 1.1//EN"
"http://www.w3.org/Graphics/SVG/1.1/DTD/svg11.dtd">
<svg viewBox="0 0 935 1210" version="1.1" xmlns="http://www.w3.org/2000/svg" xmlns:xlink="http://www.w3.org/1999/xlink">
<defs>
<style type="text/css"><![CDATA[
.g1_26{
fill: none;
stroke: #231F20;
stroke-width: 1.1458334;
stroke-linecap: butt;
stroke-linejoin: miter;
}
.g2_26{
fill: none;
stroke: #231F20;
stroke-width: 1.1977777;
stroke-linecap: butt;
stroke-linejoin: miter;
stroke-miterlimit: 4;
}
]]></style>
</defs>
<path d="M89.4,351.2l165.5,0" class="g1_26" />
<path d="M89.9,387.6l0,-35.8" class="g1_26" />
<path d="M254.9,351.2l583.9,0" class="g1_26" />
<path d="M254.9,387.6l0,-35.8" class="g1_26" />
<path d="M838.2,387.6l0,-35.8" class="g1_26" />
<path d="M89.4,388.1l165.5,0" class="g1_26" />
<path d="M89.9,441.3l0,-52.6" class="g1_26" />
<path d="M254.9,388.1l583.9,0" class="g1_26" />
<path d="M254.9,441.3l0,-52.6" class="g1_26" />
<path d="M838.2,441.3l0,-52.6" class="g1_26" />
<path d="M89.4,441.9l165.5,0" class="g1_26" />
<path d="M89.9,501.9l0,-59.5" class="g1_26" />
<path d="M254.9,441.9l583.9,0" class="g1_26" />
<path d="M254.9,501.9l0,-59.5" class="g1_26" />
<path d="M838.2,501.9l0,-59.5" class="g1_26" />
<path d="M89.4,502.5l165.5,0" class="g1_26" />
<path d="M89.9,555.6l0,-52.5" class="g1_26" />
<path d="M254.9,502.5l583.9,0" class="g1_26" />
<path d="M254.9,555.6l0,-52.5" class="g1_26" />
<path d="M838.2,555.6l0,-52.5" class="g1_26" />
<path d="M89.4,556.2l165.5,0" class="g1_26" />
<path d="M89.9,592.6l0,-35.8" class="g1_26" />
<path d="M254.9,556.2l583.9,0" class="g1_26" />
<path d="M254.9,592.6l0,-35.8" class="g1_26" />
<path d="M838.2,592.6l0,-35.8" class="g1_26" />
<path d="M89.4,593.2l165.5,0" class="g1_26" />
<path d="M89.9,676.9l0,-83.2" class="g1_26" />
<path d="M254.9,593.2l583.9,0" class="g1_26" />
<path d="M254.9,676.9l0,-83.2" class="g1_26" />
<path d="M838.2,676.9l0,-83.2" class="g1_26" />
<path d="M89.4,677.4l165.5,0" class="g1_26" />
<path d="M89.9,761.2l0,-83.2" class="g1_26" />
<path d="M254.9,677.4l583.9,0" class="g1_26" />
<path d="M254.9,761.2l0,-83.2" class="g1_26" />
<path d="M838.2,761.2l0,-83.2" class="g1_26" />
<path d="M89.4,761.7l165.5,0" class="g1_26" />
<path d="M89.9,830.2l0,-67.9" class="g1_26" />
<path d="M254.9,761.7l583.9,0" class="g1_26" />
<path d="M254.9,830.2l0,-67.9" class="g1_26" />
<path d="M838.2,830.2l0,-67.9" class="g1_26" />
<path d="M89.4,830.8l165.5,0" class="g1_26" />
<path d="M89.9,867.1l0,-35.8" class="g1_26" />
<path d="M254.9,830.8l583.9,0" class="g1_26" />
<path d="M254.9,867.1l0,-35.8" class="g1_26" />
<path d="M838.2,867.1l0,-35.8" class="g1_26" />
<path d="M89.4,867.7l165.5,0" class="g1_26" />
<path d="M254.9,867.7l583.9,0" class="g1_26" />
<image preserveAspectRatio="none" x="89" y="120" width="414" height="208" xlink:href="img/1.png" />
<path d="M90,326.3l411.3,0l0,-205.1L90,121.2l0,205.1Z" class="g2_26" />
</svg>