<?xml version="1.0" encoding="UTF-8" standalone="no"?>
<!DOCTYPE svg PUBLIC "-//W3C//DTD SVG 1.1//EN"
"http://www.w3.org/Graphics/SVG/1.1/DTD/svg11.dtd">
<svg viewBox="0 0 935 1210" version="1.1" xmlns="http://www.w3.org/2000/svg" xmlns:xlink="http://www.w3.org/1999/xlink">
<defs>
<style type="text/css"><![CDATA[
.g1_61{
fill: none;
stroke: #231F20;
stroke-width: 1.1458334;
stroke-linecap: butt;
stroke-linejoin: miter;
}
.g2_61{
fill: none;
stroke: #231F20;
stroke-width: 1.1458334;
stroke-linecap: butt;
stroke-linejoin: miter;
stroke-miterlimit: 4;
}
]]></style>
</defs>
<path d="M96.3,371.8l165.5,0" class="g1_61" />
<path d="M96.8,430.3l0,-57.9" class="g1_61" />
<path d="M261.8,371.8l585,0" class="g1_61" />
<path d="M261.8,430.3l0,-57.9" class="g1_61" />
<path d="M846.2,430.3l0,-57.9" class="g1_61" />
<path d="M96.3,430.9l165.5,0" class="g1_61" />
<path d="M96.8,543.7l0,-112.2" class="g1_61" />
<path d="M261.8,430.9l585,0" class="g1_61" />
<path d="M261.8,543.7l0,-112.2" class="g1_61" />
<path d="M846.2,543.7l0,-112.2" class="g1_61" />
<path d="M96.3,544.2l165.5,0" class="g1_61" />
<path d="M96.8,624.9l0,-80.1" class="g1_61" />
<path d="M261.8,544.2l585,0" class="g1_61" />
<path d="M261.8,624.9l0,-80.1" class="g1_61" />
<path d="M846.2,624.9l0,-80.1" class="g1_61" />
<path d="M96.3,625.5l165.5,0" class="g1_61" />
<path d="M96.8,678.6l0,-52.6" class="g1_61" />
<path d="M261.8,625.5l585,0" class="g1_61" />
<path d="M261.8,678.6l0,-52.6" class="g1_61" />
<path d="M846.2,678.6l0,-52.6" class="g1_61" />
<path d="M96.3,679.2l165.5,0" class="g1_61" />
<path d="M96.8,747.6l0,-67.8" class="g1_61" />
<path d="M261.8,679.2l585,0" class="g1_61" />
<path d="M261.8,747.6l0,-67.8" class="g1_61" />
<path d="M846.2,747.6l0,-67.8" class="g1_61" />
<path d="M96.3,748.2l165.5,0" class="g1_61" />
<path d="M96.8,816.7l0,-67.9" class="g1_61" />
<path d="M261.8,748.2l585,0" class="g1_61" />
<path d="M261.8,816.7l0,-67.9" class="g1_61" />
<path d="M846.2,816.7l0,-67.9" class="g1_61" />
<path d="M96.3,817.2l165.5,0" class="g1_61" />
<path d="M261.8,817.2l585,0" class="g1_61" />
<image preserveAspectRatio="none" x="95" y="144" width="415" height="208" xlink:href="img/1.png" />
<path d="M96.8,145.4l411.4,0l0,205.1l-411.4,0l0,-205.1Z" class="g2_61" />
</svg>