<?xml version="1.0" encoding="UTF-8" standalone="no"?>
<!DOCTYPE svg PUBLIC "-//W3C//DTD SVG 1.1//EN"
"http://www.w3.org/Graphics/SVG/1.1/DTD/svg11.dtd">
<svg viewBox="0 0 935 1210" version="1.1" xmlns="http://www.w3.org/2000/svg" xmlns:xlink="http://www.w3.org/1999/xlink">
<defs>
<style type="text/css"><![CDATA[
.g1_17{
fill: none;
stroke: #231F20;
stroke-width: 1.1458334;
stroke-linecap: butt;
stroke-linejoin: miter;
}
.g2_17{
fill: none;
stroke: #231F20;
stroke-width: 1.1458334;
stroke-linecap: butt;
stroke-linejoin: miter;
stroke-miterlimit: 4;
}
]]></style>
</defs>
<path d="M96.3,358.1l220.5,0" class="g1_17" />
<path d="M96.8,394.4l0,-35.8" class="g1_17" />
<path d="M316.8,358.1l528.8,0" class="g1_17" />
<path d="M316.8,394.4l0,-35.8" class="g1_17" />
<path d="M845.1,394.4l0,-35.8" class="g1_17" />
<path d="M96.3,395l220.5,0" class="g1_17" />
<path d="M96.8,431.4l0,-35.8" class="g1_17" />
<path d="M316.8,395l528.8,0" class="g1_17" />
<path d="M316.8,431.4l0,-35.8" class="g1_17" />
<path d="M845.1,431.4l0,-35.8" class="g1_17" />
<path d="M96.3,431.9l220.5,0" class="g1_17" />
<path d="M96.8,490.4l0,-57.9" class="g1_17" />
<path d="M316.8,431.9l528.8,0" class="g1_17" />
<path d="M316.8,490.4l0,-57.9" class="g1_17" />
<path d="M845.1,490.4l0,-57.9" class="g1_17" />
<path d="M96.3,491l220.5,0" class="g1_17" />
<path d="M96.8,544.2l0,-52.6" class="g1_17" />
<path d="M316.8,491l528.8,0" class="g1_17" />
<path d="M316.8,544.2l0,-52.6" class="g1_17" />
<path d="M845.1,544.2l0,-52.6" class="g1_17" />
<path d="M96.3,544.8l220.5,0" class="g1_17" />
<path d="M96.8,581.1l0,-35.8" class="g1_17" />
<path d="M316.8,544.8l528.8,0" class="g1_17" />
<path d="M316.8,581.1l0,-35.8" class="g1_17" />
<path d="M845.1,581.1l0,-35.8" class="g1_17" />
<path d="M96.3,581.7l220.5,0" class="g1_17" />
<path d="M96.8,662.4l0,-80.1" class="g1_17" />
<path d="M316.8,581.7l528.8,0" class="g1_17" />
<path d="M316.8,662.4l0,-80.1" class="g1_17" />
<path d="M845.1,662.4l0,-80.1" class="g1_17" />
<path d="M96.3,662.9l220.5,0" class="g1_17" />
<path d="M96.8,699.3l0,-35.8" class="g1_17" />
<path d="M316.8,662.9l528.8,0" class="g1_17" />
<path d="M316.8,699.3l0,-35.8" class="g1_17" />
<path d="M845.1,699.3l0,-35.8" class="g1_17" />
<path d="M96.3,699.9l220.5,0" class="g1_17" />
<path d="M96.8,736.2l0,-35.8" class="g1_17" />
<path d="M316.8,699.9l528.8,0" class="g1_17" />
<path d="M316.8,736.2l0,-35.8" class="g1_17" />
<path d="M845.1,736.2l0,-35.8" class="g1_17" />
<path d="M96.3,736.8l220.5,0" class="g1_17" />
<path d="M316.8,736.8l528.8,0" class="g1_17" />
<image preserveAspectRatio="none" x="95" y="119" width="415" height="208" xlink:href="img/1.png" />
<path d="M96.8,120.3l411.4,0l0,205.1l-411.4,0l0,-205.1Z" class="g2_17" />
</svg>