<?xml version="1.0" encoding="UTF-8" standalone="no"?>
<!DOCTYPE svg PUBLIC "-//W3C//DTD SVG 1.1//EN"
"http://www.w3.org/Graphics/SVG/1.1/DTD/svg11.dtd">
<svg viewBox="0 0 935 1210" version="1.1" xmlns="http://www.w3.org/2000/svg" xmlns:xlink="http://www.w3.org/1999/xlink">
<defs>
<style type="text/css"><![CDATA[
.g1_75{
fill: none;
stroke: #231F20;
stroke-width: 1.1458334;
stroke-linecap: butt;
stroke-linejoin: miter;
}
.g2_75{
fill: none;
stroke: #231F20;
stroke-width: 1.1458334;
stroke-linecap: butt;
stroke-linejoin: miter;
stroke-miterlimit: 4;
}
]]></style>
</defs>
<path d="M96.3,371.8l165.5,0" class="g1_75" />
<path d="M96.8,408.2l0,-35.8" class="g1_75" />
<path d="M261.8,371.8l585,0" class="g1_75" />
<path d="M261.8,408.2l0,-35.8" class="g1_75" />
<path d="M846.2,408.2l0,-35.8" class="g1_75" />
<path d="M96.3,408.8l165.5,0" class="g1_75" />
<path d="M96.8,461.9l0,-52.6" class="g1_75" />
<path d="M261.8,408.8l585,0" class="g1_75" />
<path d="M261.8,461.9l0,-52.6" class="g1_75" />
<path d="M846.2,461.9l0,-52.6" class="g1_75" />
<path d="M96.3,462.5l165.5,0" class="g1_75" />
<path d="M96.8,498.9l0,-35.8" class="g1_75" />
<path d="M261.8,462.5l585,0" class="g1_75" />
<path d="M261.8,498.9l0,-35.8" class="g1_75" />
<path d="M846.2,498.9l0,-35.8" class="g1_75" />
<path d="M96.3,499.4l165.5,0" class="g1_75" />
<path d="M96.8,552.6l0,-52.6" class="g1_75" />
<path d="M261.8,499.4l585,0" class="g1_75" />
<path d="M261.8,552.6l0,-52.6" class="g1_75" />
<path d="M846.2,552.6l0,-52.6" class="g1_75" />
<path d="M96.3,553.2l165.5,0" class="g1_75" />
<path d="M96.8,672.8l0,-119.1" class="g1_75" />
<path d="M261.8,553.2l585,0" class="g1_75" />
<path d="M261.8,672.8l0,-119.1" class="g1_75" />
<path d="M846.2,672.8l0,-119.1" class="g1_75" />
<path d="M96.3,673.4l165.5,0" class="g1_75" />
<path d="M96.8,754l0,-80.1" class="g1_75" />
<path d="M261.8,673.4l585,0" class="g1_75" />
<path d="M261.8,754l0,-80.1" class="g1_75" />
<path d="M846.2,754l0,-80.1" class="g1_75" />
<path d="M96.3,754.6l165.5,0" class="g1_75" />
<path d="M96.8,807.8l0,-52.6" class="g1_75" />
<path d="M261.8,754.6l585,0" class="g1_75" />
<path d="M261.8,807.8l0,-52.6" class="g1_75" />
<path d="M846.2,807.8l0,-52.6" class="g1_75" />
<path d="M96.3,808.3l165.5,0" class="g1_75" />
<path d="M96.8,876.8l0,-67.9" class="g1_75" />
<path d="M261.8,808.3l585,0" class="g1_75" />
<path d="M261.8,876.8l0,-67.9" class="g1_75" />
<path d="M846.2,876.8l0,-67.9" class="g1_75" />
<path d="M96.3,877.4l165.5,0" class="g1_75" />
<path d="M96.8,947.3l0,-69.4" class="g1_75" />
<path d="M261.8,877.4l585,0" class="g1_75" />
<path d="M261.8,947.3l0,-69.4" class="g1_75" />
<path d="M846.2,947.3l0,-69.4" class="g1_75" />
<path d="M96.3,947.9l165.5,0" class="g1_75" />
<path d="M261.8,947.9l585,0" class="g1_75" />
<image preserveAspectRatio="none" x="95" y="144" width="415" height="209" xlink:href="img/1.png" />
<path d="M96.8,146.1l411.4,0l0,205.1l-411.4,0l0,-205.1Z" class="g2_75" />
</svg>