<?xml version="1.0" encoding="UTF-8" standalone="no"?>
<!DOCTYPE svg PUBLIC "-//W3C//DTD SVG 1.1//EN"
"http://www.w3.org/Graphics/SVG/1.1/DTD/svg11.dtd">
<svg viewBox="0 0 935 1210" version="1.1" xmlns="http://www.w3.org/2000/svg" xmlns:xlink="http://www.w3.org/1999/xlink">
<defs>
<style type="text/css"><![CDATA[
.g1_84{
fill: none;
stroke: #231F20;
stroke-width: 1.1458334;
stroke-linecap: butt;
stroke-linejoin: miter;
}
.g2_84{
fill: none;
stroke: #231F20;
stroke-width: 1.1458334;
stroke-linecap: butt;
stroke-linejoin: miter;
stroke-miterlimit: 4;
}
]]></style>
</defs>
<path d="M89.4,385.6l165.5,0" class="g1_84" />
<path d="M89.9,437.2l0,-51.1" class="g1_84" />
<path d="M254.9,385.6l585,0" class="g1_84" />
<path d="M254.9,437.2l0,-51.1" class="g1_84" />
<path d="M839.3,437.2l0,-51.1" class="g1_84" />
<path d="M89.4,437.8l165.5,0" class="g1_84" />
<path d="M89.9,490.9l0,-52.5" class="g1_84" />
<path d="M254.9,437.8l585,0" class="g1_84" />
<path d="M254.9,490.9l0,-52.5" class="g1_84" />
<path d="M839.3,490.9l0,-52.5" class="g1_84" />
<path d="M89.4,491.5l165.5,0" class="g1_84" />
<path d="M89.9,527.9l0,-35.8" class="g1_84" />
<path d="M254.9,491.5l585,0" class="g1_84" />
<path d="M254.9,527.9l0,-35.8" class="g1_84" />
<path d="M839.3,527.9l0,-35.8" class="g1_84" />
<path d="M89.4,528.5l165.5,0" class="g1_84" />
<path d="M89.9,581.6l0,-52.6" class="g1_84" />
<path d="M254.9,528.5l585,0" class="g1_84" />
<path d="M254.9,581.6l0,-52.6" class="g1_84" />
<path d="M839.3,581.6l0,-52.6" class="g1_84" />
<path d="M89.4,582.2l165.5,0" class="g1_84" />
<path d="M89.9,701.8l0,-119" class="g1_84" />
<path d="M254.9,582.2l585,0" class="g1_84" />
<path d="M254.9,701.8l0,-119" class="g1_84" />
<path d="M839.3,701.8l0,-119" class="g1_84" />
<path d="M89.4,702.4l165.5,0" class="g1_84" />
<path d="M89.9,783.1l0,-80.1" class="g1_84" />
<path d="M254.9,702.4l585,0" class="g1_84" />
<path d="M254.9,783.1l0,-80.1" class="g1_84" />
<path d="M839.3,783.1l0,-80.1" class="g1_84" />
<path d="M89.4,783.6l165.5,0" class="g1_84" />
<path d="M89.9,870.4l0,-86.2" class="g1_84" />
<path d="M254.9,783.6l585,0" class="g1_84" />
<path d="M254.9,870.4l0,-86.2" class="g1_84" />
<path d="M839.3,870.4l0,-86.2" class="g1_84" />
<path d="M89.4,871l165.5,0" class="g1_84" />
<path d="M254.9,871l585,0" class="g1_84" />
<image preserveAspectRatio="none" x="88" y="146" width="415" height="208" xlink:href="img/1.png" />
<path d="M89.9,147.6l411.4,0l0,205.1l-411.4,0l0,-205.1Z" class="g2_84" />
</svg>