<?xml version="1.0" encoding="UTF-8" standalone="no"?>
<!DOCTYPE svg PUBLIC "-//W3C//DTD SVG 1.1//EN"
"http://www.w3.org/Graphics/SVG/1.1/DTD/svg11.dtd">
<svg viewBox="0 0 935 1210" version="1.1" xmlns="http://www.w3.org/2000/svg" xmlns:xlink="http://www.w3.org/1999/xlink">
<defs>
<style type="text/css"><![CDATA[
.g1_66{
fill: none;
stroke: #231F20;
stroke-width: 1.1458334;
stroke-linecap: butt;
stroke-linejoin: miter;
}
.g2_66{
fill: none;
stroke: #231F20;
stroke-width: 1.1458334;
stroke-linecap: butt;
stroke-linejoin: miter;
stroke-miterlimit: 4;
}
]]></style>
</defs>
<path d="M89.4,371.8l165.5,0" class="g1_66" />
<path d="M89.9,408.2l0,-35.8" class="g1_66" />
<path d="M254.9,371.8l585,0" class="g1_66" />
<path d="M254.9,408.2l0,-35.8" class="g1_66" />
<path d="M839.3,408.2l0,-35.8" class="g1_66" />
<path d="M89.4,408.8l165.5,0" class="g1_66" />
<path d="M89.9,461.9l0,-52.6" class="g1_66" />
<path d="M254.9,408.8l585,0" class="g1_66" />
<path d="M254.9,461.9l0,-52.6" class="g1_66" />
<path d="M839.3,461.9l0,-52.6" class="g1_66" />
<path d="M89.4,462.5l165.5,0" class="g1_66" />
<path d="M89.9,498.9l0,-35.8" class="g1_66" />
<path d="M254.9,462.5l585,0" class="g1_66" />
<path d="M254.9,498.9l0,-35.8" class="g1_66" />
<path d="M839.3,498.9l0,-35.8" class="g1_66" />
<path d="M89.4,499.4l165.5,0" class="g1_66" />
<path d="M89.9,552.6l0,-52.6" class="g1_66" />
<path d="M254.9,499.4l585,0" class="g1_66" />
<path d="M254.9,552.6l0,-52.6" class="g1_66" />
<path d="M839.3,552.6l0,-52.6" class="g1_66" />
<path d="M89.4,553.2l165.5,0" class="g1_66" />
<path d="M89.9,589.5l0,-35.8" class="g1_66" />
<path d="M254.9,553.2l585,0" class="g1_66" />
<path d="M254.9,589.5l0,-35.8" class="g1_66" />
<path d="M839.3,589.5l0,-35.8" class="g1_66" />
<path d="M89.4,590.1l165.5,0" class="g1_66" />
<path d="M89.9,670.8l0,-80.1" class="g1_66" />
<path d="M254.9,590.1l585,0" class="g1_66" />
<path d="M254.9,670.8l0,-80.1" class="g1_66" />
<path d="M839.3,670.8l0,-80.1" class="g1_66" />
<path d="M89.4,671.3l165.5,0" class="g1_66" />
<path d="M89.9,724.5l0,-52.6" class="g1_66" />
<path d="M254.9,671.3l585,0" class="g1_66" />
<path d="M254.9,724.5l0,-52.6" class="g1_66" />
<path d="M839.3,724.5l0,-52.6" class="g1_66" />
<path d="M89.4,725.1l165.5,0" class="g1_66" />
<path d="M89.9,793.5l0,-67.9" class="g1_66" />
<path d="M254.9,725.1l585,0" class="g1_66" />
<path d="M254.9,793.5l0,-67.9" class="g1_66" />
<path d="M839.3,793.5l0,-67.9" class="g1_66" />
<path d="M89.4,794.1l165.5,0" class="g1_66" />
<path d="M89.9,864.1l0,-69.4" class="g1_66" />
<path d="M254.9,794.1l585,0" class="g1_66" />
<path d="M254.9,864.1l0,-69.4" class="g1_66" />
<path d="M839.3,864.1l0,-69.4" class="g1_66" />
<path d="M89.4,864.6l165.5,0" class="g1_66" />
<path d="M254.9,864.6l585,0" class="g1_66" />
<image preserveAspectRatio="none" x="88" y="144" width="415" height="208" xlink:href="img/1.png" />
<path d="M89.9,145.7l411.4,0l0,205.1l-411.4,0l0,-205.1Z" class="g2_66" />
</svg>