<?xml version="1.0" encoding="UTF-8" standalone="no"?>
<!DOCTYPE svg PUBLIC "-//W3C//DTD SVG 1.1//EN"
"http://www.w3.org/Graphics/SVG/1.1/DTD/svg11.dtd">
<svg viewBox="0 0 935 1210" version="1.1" xmlns="http://www.w3.org/2000/svg" xmlns:xlink="http://www.w3.org/1999/xlink">
<defs>
<style type="text/css"><![CDATA[
.g1_70{
fill: none;
stroke: #231F20;
stroke-width: 1.1458334;
stroke-linecap: butt;
stroke-linejoin: miter;
}
.g2_70{
fill: none;
stroke: #231F20;
stroke-width: 1.1458334;
stroke-linecap: butt;
stroke-linejoin: miter;
stroke-miterlimit: 4;
}
]]></style>
</defs>
<path d="M89.4,371.8l165.5,0" class="g1_70" />
<path d="M89.9,408.2l0,-35.8" class="g1_70" />
<path d="M254.9,371.8l585,0" class="g1_70" />
<path d="M254.9,408.2l0,-35.8" class="g1_70" />
<path d="M839.3,408.2l0,-35.8" class="g1_70" />
<path d="M89.4,408.8l165.5,0" class="g1_70" />
<path d="M89.9,461.9l0,-52.6" class="g1_70" />
<path d="M254.9,408.8l585,0" class="g1_70" />
<path d="M254.9,461.9l0,-52.6" class="g1_70" />
<path d="M839.3,461.9l0,-52.6" class="g1_70" />
<path d="M89.4,462.5l165.5,0" class="g1_70" />
<path d="M89.9,498.9l0,-35.8" class="g1_70" />
<path d="M254.9,462.5l585,0" class="g1_70" />
<path d="M254.9,498.9l0,-35.8" class="g1_70" />
<path d="M839.3,498.9l0,-35.8" class="g1_70" />
<path d="M89.4,499.4l165.5,0" class="g1_70" />
<path d="M89.9,552.6l0,-52.6" class="g1_70" />
<path d="M254.9,499.4l585,0" class="g1_70" />
<path d="M254.9,552.6l0,-52.6" class="g1_70" />
<path d="M839.3,552.6l0,-52.6" class="g1_70" />
<path d="M89.4,553.2l165.5,0" class="g1_70" />
<path d="M89.9,672.8l0,-119.1" class="g1_70" />
<path d="M254.9,553.2l585,0" class="g1_70" />
<path d="M254.9,672.8l0,-119.1" class="g1_70" />
<path d="M839.3,672.8l0,-119.1" class="g1_70" />
<path d="M89.4,673.4l165.5,0" class="g1_70" />
<path d="M89.9,754l0,-80.1" class="g1_70" />
<path d="M254.9,673.4l585,0" class="g1_70" />
<path d="M254.9,754l0,-80.1" class="g1_70" />
<path d="M839.3,754l0,-80.1" class="g1_70" />
<path d="M89.4,754.6l165.5,0" class="g1_70" />
<path d="M89.9,807.8l0,-52.6" class="g1_70" />
<path d="M254.9,754.6l585,0" class="g1_70" />
<path d="M254.9,807.8l0,-52.6" class="g1_70" />
<path d="M839.3,807.8l0,-52.6" class="g1_70" />
<path d="M89.4,808.3l165.5,0" class="g1_70" />
<path d="M89.9,876.8l0,-67.9" class="g1_70" />
<path d="M254.9,808.3l585,0" class="g1_70" />
<path d="M254.9,876.8l0,-67.9" class="g1_70" />
<path d="M839.3,876.8l0,-67.9" class="g1_70" />
<path d="M89.4,877.4l165.5,0" class="g1_70" />
<path d="M89.9,947.3l0,-69.4" class="g1_70" />
<path d="M254.9,877.4l585,0" class="g1_70" />
<path d="M254.9,947.3l0,-69.4" class="g1_70" />
<path d="M839.3,947.3l0,-69.4" class="g1_70" />
<path d="M89.4,947.9l165.5,0" class="g1_70" />
<path d="M254.9,947.9l585,0" class="g1_70" />
<image preserveAspectRatio="none" x="88" y="143" width="415" height="208" xlink:href="img/1.png" />
<path d="M89.9,144.2l411.4,0l0,205.1l-411.4,0l0,-205.1Z" class="g2_70" />
</svg>