<?xml version="1.0" encoding="UTF-8" standalone="no"?>
<!DOCTYPE svg PUBLIC "-//W3C//DTD SVG 1.1//EN"
"http://www.w3.org/Graphics/SVG/1.1/DTD/svg11.dtd">
<svg viewBox="0 0 935 1210" version="1.1" xmlns="http://www.w3.org/2000/svg" xmlns:xlink="http://www.w3.org/1999/xlink">
<defs>
<style type="text/css"><![CDATA[
.g1_18{
fill: none;
stroke: #231F20;
stroke-width: 1.1458334;
stroke-linecap: butt;
stroke-linejoin: miter;
}
.g2_18{
fill: none;
stroke: #231F20;
stroke-width: 1.1458334;
stroke-linecap: butt;
stroke-linejoin: miter;
stroke-miterlimit: 4;
}
]]></style>
</defs>
<path d="M89.4,358.1l220.5,0" class="g1_18" />
<path d="M89.9,394.4l0,-35.8" class="g1_18" />
<path d="M309.9,358.1l528.9,0" class="g1_18" />
<path d="M309.9,394.4l0,-35.8" class="g1_18" />
<path d="M838.2,394.4l0,-35.8" class="g1_18" />
<path d="M89.4,395l220.5,0" class="g1_18" />
<path d="M89.9,448.2l0,-52.6" class="g1_18" />
<path d="M309.9,395l528.9,0" class="g1_18" />
<path d="M309.9,448.2l0,-52.6" class="g1_18" />
<path d="M838.2,448.2l0,-52.6" class="g1_18" />
<path d="M89.4,448.7l220.5,0" class="g1_18" />
<path d="M89.9,485.1l0,-35.8" class="g1_18" />
<path d="M309.9,448.7l528.9,0" class="g1_18" />
<path d="M309.9,485.1l0,-35.8" class="g1_18" />
<path d="M838.2,485.1l0,-35.8" class="g1_18" />
<path d="M89.4,485.7l220.5,0" class="g1_18" />
<path d="M89.9,566.3l0,-80.1" class="g1_18" />
<path d="M309.9,485.7l528.9,0" class="g1_18" />
<path d="M309.9,566.3l0,-80.1" class="g1_18" />
<path d="M838.2,566.3l0,-80.1" class="g1_18" />
<path d="M89.4,566.9l220.5,0" class="g1_18" />
<path d="M89.9,603.3l0,-35.8" class="g1_18" />
<path d="M309.9,566.9l528.9,0" class="g1_18" />
<path d="M309.9,603.3l0,-35.8" class="g1_18" />
<path d="M838.2,603.3l0,-35.8" class="g1_18" />
<path d="M89.4,603.8l220.5,0" class="g1_18" />
<path d="M89.9,640.2l0,-35.8" class="g1_18" />
<path d="M309.9,603.8l528.9,0" class="g1_18" />
<path d="M309.9,640.2l0,-35.8" class="g1_18" />
<path d="M838.2,640.2l0,-35.8" class="g1_18" />
<path d="M89.4,640.8l220.5,0" class="g1_18" />
<path d="M309.9,640.8l528.9,0" class="g1_18" />
<image preserveAspectRatio="none" x="88" y="118" width="415" height="209" xlink:href="img/1.png" />
<path d="M89.9,120.1l411.4,0l0,205.1l-411.4,0l0,-205.1Z" class="g2_18" />
</svg>