<?xml version="1.0" encoding="UTF-8" standalone="no"?>
<!DOCTYPE svg PUBLIC "-//W3C//DTD SVG 1.1//EN"
"http://www.w3.org/Graphics/SVG/1.1/DTD/svg11.dtd">
<svg viewBox="0 0 935 1210" version="1.1" xmlns="http://www.w3.org/2000/svg" xmlns:xlink="http://www.w3.org/1999/xlink">
<defs>
<style type="text/css"><![CDATA[
.g1_58{
fill: none;
stroke: #231F20;
stroke-width: 1.1458334;
stroke-linecap: butt;
stroke-linejoin: miter;
}
.g2_58{
fill: none;
stroke: #231F20;
stroke-width: 1.1458334;
stroke-linecap: butt;
stroke-linejoin: miter;
stroke-miterlimit: 4;
}
]]></style>
</defs>
<path d="M89.4,371.8l165.5,0" class="g1_58" />
<path d="M89.9,430.3l0,-57.9" class="g1_58" />
<path d="M254.9,371.8l585,0" class="g1_58" />
<path d="M254.9,430.3l0,-57.9" class="g1_58" />
<path d="M839.3,430.3l0,-57.9" class="g1_58" />
<path d="M89.4,430.9l165.5,0" class="g1_58" />
<path d="M89.9,550.5l0,-119" class="g1_58" />
<path d="M254.9,430.9l585,0" class="g1_58" />
<path d="M254.9,550.5l0,-119" class="g1_58" />
<path d="M839.3,550.5l0,-119" class="g1_58" />
<path d="M89.4,551.1l165.5,0" class="g1_58" />
<path d="M89.9,631.8l0,-80.1" class="g1_58" />
<path d="M254.9,551.1l585,0" class="g1_58" />
<path d="M254.9,631.8l0,-80.1" class="g1_58" />
<path d="M839.3,631.8l0,-80.1" class="g1_58" />
<path d="M89.4,632.3l165.5,0" class="g1_58" />
<path d="M89.9,685.5l0,-52.6" class="g1_58" />
<path d="M254.9,632.3l585,0" class="g1_58" />
<path d="M254.9,685.5l0,-52.6" class="g1_58" />
<path d="M839.3,685.5l0,-52.6" class="g1_58" />
<path d="M89.4,686.1l165.5,0" class="g1_58" />
<path d="M89.9,754.5l0,-67.8" class="g1_58" />
<path d="M254.9,686.1l585,0" class="g1_58" />
<path d="M254.9,754.5l0,-67.8" class="g1_58" />
<path d="M839.3,754.5l0,-67.8" class="g1_58" />
<path d="M89.4,755.1l165.5,0" class="g1_58" />
<path d="M89.9,823.5l0,-67.8" class="g1_58" />
<path d="M254.9,755.1l585,0" class="g1_58" />
<path d="M254.9,823.5l0,-67.8" class="g1_58" />
<path d="M839.3,823.5l0,-67.8" class="g1_58" />
<path d="M89.4,824.1l165.5,0" class="g1_58" />
<path d="M254.9,824.1l585,0" class="g1_58" />
<image preserveAspectRatio="none" x="88" y="143" width="415" height="208" xlink:href="img/1.png" />
<path d="M89.9,144.2l411.4,0l0,205.1l-411.4,0l0,-205.1Z" class="g2_58" />
</svg>