<?xml version="1.0" encoding="UTF-8" standalone="no"?>
<!DOCTYPE svg PUBLIC "-//W3C//DTD SVG 1.1//EN"
"http://www.w3.org/Graphics/SVG/1.1/DTD/svg11.dtd">
<svg viewBox="0 0 935 1210" version="1.1" xmlns="http://www.w3.org/2000/svg" xmlns:xlink="http://www.w3.org/1999/xlink">
<defs>
<style type="text/css"><![CDATA[
.g1_15{
fill: none;
stroke: #231F20;
stroke-width: 1.1458334;
stroke-linecap: butt;
stroke-linejoin: miter;
}
.g2_15{
fill: none;
stroke: #231F20;
stroke-width: 1.1458334;
stroke-linecap: butt;
stroke-linejoin: miter;
stroke-miterlimit: 4;
}
]]></style>
</defs>
<path d="M96.3,351.2l220.5,0" class="g1_15" />
<path d="M96.8,387.6l0,-35.8" class="g1_15" />
<path d="M316.8,351.2l529.2,0" class="g1_15" />
<path d="M316.8,387.6l0,-35.8" class="g1_15" />
<path d="M845.4,387.6l0,-35.8" class="g1_15" />
<path d="M96.3,388.1l220.5,0" class="g1_15" />
<path d="M96.8,424.5l0,-35.8" class="g1_15" />
<path d="M316.8,388.1l529.2,0" class="g1_15" />
<path d="M316.8,424.5l0,-35.8" class="g1_15" />
<path d="M845.4,424.5l0,-35.8" class="g1_15" />
<path d="M96.3,425.1l220.5,0" class="g1_15" />
<path d="M96.8,483.6l0,-58" class="g1_15" />
<path d="M316.8,425.1l529.2,0" class="g1_15" />
<path d="M316.8,483.6l0,-58" class="g1_15" />
<path d="M845.4,483.6l0,-58" class="g1_15" />
<path d="M96.3,484.1l220.5,0" class="g1_15" />
<path d="M96.8,537.3l0,-52.6" class="g1_15" />
<path d="M316.8,484.1l529.2,0" class="g1_15" />
<path d="M316.8,537.3l0,-52.6" class="g1_15" />
<path d="M845.4,537.3l0,-52.6" class="g1_15" />
<path d="M96.3,537.9l220.5,0" class="g1_15" />
<path d="M96.8,574.2l0,-35.7" class="g1_15" />
<path d="M316.8,537.9l529.2,0" class="g1_15" />
<path d="M316.8,574.2l0,-35.7" class="g1_15" />
<path d="M845.4,574.2l0,-35.7" class="g1_15" />
<path d="M96.3,574.8l220.5,0" class="g1_15" />
<path d="M96.8,655.5l0,-80.1" class="g1_15" />
<path d="M316.8,574.8l529.2,0" class="g1_15" />
<path d="M316.8,655.5l0,-80.1" class="g1_15" />
<path d="M845.4,655.5l0,-80.1" class="g1_15" />
<path d="M96.3,656.1l220.5,0" class="g1_15" />
<path d="M96.8,692.4l0,-35.8" class="g1_15" />
<path d="M316.8,656.1l529.2,0" class="g1_15" />
<path d="M316.8,692.4l0,-35.8" class="g1_15" />
<path d="M845.4,692.4l0,-35.8" class="g1_15" />
<path d="M96.3,693l220.5,0" class="g1_15" />
<path d="M96.8,729.3l0,-35.7" class="g1_15" />
<path d="M316.8,693L846,693" class="g1_15" />
<path d="M316.8,729.3l0,-35.7" class="g1_15" />
<path d="M845.4,729.3l0,-35.7" class="g1_15" />
<path d="M96.3,729.9l220.5,0" class="g1_15" />
<path d="M316.8,729.9l529.2,0" class="g1_15" />
<image preserveAspectRatio="none" x="95" y="118" width="415" height="209" xlink:href="img/1.png" />
<path d="M96.8,324.8l411.4,0l0,-205.1l-411.4,0l0,205.1Z" class="g2_15" />
</svg>