<?xml version="1.0" encoding="UTF-8" standalone="no"?>
<!DOCTYPE svg PUBLIC "-//W3C//DTD SVG 1.1//EN"
"http://www.w3.org/Graphics/SVG/1.1/DTD/svg11.dtd">
<svg viewBox="0 0 935 1210" version="1.1" xmlns="http://www.w3.org/2000/svg" xmlns:xlink="http://www.w3.org/1999/xlink">
<defs>
<style type="text/css"><![CDATA[
.g1_27{
fill: none;
stroke: #231F20;
stroke-width: 1.1458334;
stroke-linecap: butt;
stroke-linejoin: miter;
}
.g2_27{
fill: none;
stroke: #231F20;
stroke-width: 1.1458334;
stroke-linecap: butt;
stroke-linejoin: miter;
stroke-miterlimit: 4;
}
]]></style>
</defs>
<path d="M96.3,351.2l165.5,0" class="g1_27" />
<path d="M96.8,387.6l0,-35.8" class="g1_27" />
<path d="M261.8,351.2l585,0" class="g1_27" />
<path d="M261.8,387.6l0,-35.8" class="g1_27" />
<path d="M846.2,387.6l0,-35.8" class="g1_27" />
<path d="M96.3,388.1l165.5,0" class="g1_27" />
<path d="M96.8,441.3l0,-52.6" class="g1_27" />
<path d="M261.8,388.1l585,0" class="g1_27" />
<path d="M261.8,441.3l0,-52.6" class="g1_27" />
<path d="M846.2,441.3l0,-52.6" class="g1_27" />
<path d="M96.3,441.9l165.5,0" class="g1_27" />
<path d="M96.8,525.6l0,-83.2" class="g1_27" />
<path d="M261.8,441.9l585,0" class="g1_27" />
<path d="M261.8,525.6l0,-83.2" class="g1_27" />
<path d="M846.2,525.6l0,-83.2" class="g1_27" />
<path d="M96.3,526.2l165.5,0" class="g1_27" />
<path d="M96.8,579.3l0,-52.6" class="g1_27" />
<path d="M261.8,526.2l585,0" class="g1_27" />
<path d="M261.8,579.3l0,-52.6" class="g1_27" />
<path d="M846.2,579.3l0,-52.6" class="g1_27" />
<path d="M96.3,579.9l165.5,0" class="g1_27" />
<path d="M96.8,616.3l0,-35.8" class="g1_27" />
<path d="M261.8,579.9l585,0" class="g1_27" />
<path d="M261.8,616.3l0,-35.8" class="g1_27" />
<path d="M846.2,616.3l0,-35.8" class="g1_27" />
<path d="M96.3,616.8l165.5,0" class="g1_27" />
<path d="M96.8,700.6l0,-83.2" class="g1_27" />
<path d="M261.8,616.8l585,0" class="g1_27" />
<path d="M261.8,700.6l0,-83.2" class="g1_27" />
<path d="M846.2,700.6l0,-83.2" class="g1_27" />
<path d="M96.3,701.1l165.5,0" class="g1_27" />
<path d="M96.8,784.8l0,-83.1" class="g1_27" />
<path d="M261.8,701.1l585,0" class="g1_27" />
<path d="M261.8,784.8l0,-83.1" class="g1_27" />
<path d="M846.2,784.8l0,-83.1" class="g1_27" />
<path d="M96.3,785.4l165.5,0" class="g1_27" />
<path d="M96.8,853.9l0,-67.9" class="g1_27" />
<path d="M261.8,785.4l585,0" class="g1_27" />
<path d="M261.8,853.9l0,-67.9" class="g1_27" />
<path d="M846.2,853.9l0,-67.9" class="g1_27" />
<path d="M96.3,854.4l165.5,0" class="g1_27" />
<path d="M96.8,890.8l0,-35.8" class="g1_27" />
<path d="M261.8,854.4l585,0" class="g1_27" />
<path d="M261.8,890.8l0,-35.8" class="g1_27" />
<path d="M846.2,890.8l0,-35.8" class="g1_27" />
<path d="M96.3,891.4l165.5,0" class="g1_27" />
<path d="M261.8,891.4l585,0" class="g1_27" />
<image preserveAspectRatio="none" x="95" y="120" width="415" height="208" xlink:href="img/1.png" />
<path d="M96.8,121.5l411.4,0l0,205.1l-411.4,0l0,-205.1Z" class="g2_27" />
</svg>