<?xml version="1.0" encoding="UTF-8" standalone="no"?>
<!DOCTYPE svg PUBLIC "-//W3C//DTD SVG 1.1//EN"
"http://www.w3.org/Graphics/SVG/1.1/DTD/svg11.dtd">
<svg viewBox="0 0 935 1210" version="1.1" xmlns="http://www.w3.org/2000/svg" xmlns:xlink="http://www.w3.org/1999/xlink">
<defs>
<style type="text/css"><![CDATA[
.g1_82{
fill: none;
stroke: #231F20;
stroke-width: 1.1458334;
stroke-linecap: butt;
stroke-linejoin: miter;
}
.g2_82{
fill: none;
stroke: #231F20;
stroke-width: 1.1458334;
stroke-linecap: butt;
stroke-linejoin: miter;
stroke-miterlimit: 4;
}
]]></style>
</defs>
<path d="M89.4,385.6l165.5,0" class="g1_82" />
<path d="M89.9,421.9l0,-35.8" class="g1_82" />
<path d="M254.9,385.6l585,0" class="g1_82" />
<path d="M254.9,421.9l0,-35.8" class="g1_82" />
<path d="M839.3,421.9l0,-35.8" class="g1_82" />
<path d="M89.4,422.5l165.5,0" class="g1_82" />
<path d="M89.9,475.7l0,-52.6" class="g1_82" />
<path d="M254.9,422.5l585,0" class="g1_82" />
<path d="M254.9,475.7l0,-52.6" class="g1_82" />
<path d="M839.3,475.7l0,-52.6" class="g1_82" />
<path d="M89.4,476.2l165.5,0" class="g1_82" />
<path d="M89.9,512.6l0,-35.8" class="g1_82" />
<path d="M254.9,476.2l585,0" class="g1_82" />
<path d="M254.9,512.6l0,-35.8" class="g1_82" />
<path d="M839.3,512.6l0,-35.8" class="g1_82" />
<path d="M89.4,513.2l165.5,0" class="g1_82" />
<path d="M89.9,566.3l0,-52.6" class="g1_82" />
<path d="M254.9,513.2l585,0" class="g1_82" />
<path d="M254.9,566.3l0,-52.6" class="g1_82" />
<path d="M839.3,566.3l0,-52.6" class="g1_82" />
<path d="M89.4,566.9l165.5,0" class="g1_82" />
<path d="M89.9,686.5l0,-119" class="g1_82" />
<path d="M254.9,566.9l585,0" class="g1_82" />
<path d="M254.9,686.5l0,-119" class="g1_82" />
<path d="M839.3,686.5l0,-119" class="g1_82" />
<path d="M89.4,687.1l165.5,0" class="g1_82" />
<path d="M89.9,767.8l0,-80.1" class="g1_82" />
<path d="M254.9,687.1l585,0" class="g1_82" />
<path d="M254.9,767.8l0,-80.1" class="g1_82" />
<path d="M839.3,767.8l0,-80.1" class="g1_82" />
<path d="M89.4,768.3l165.5,0" class="g1_82" />
<path d="M89.9,855.1l0,-86.2" class="g1_82" />
<path d="M254.9,768.3l585,0" class="g1_82" />
<path d="M254.9,855.1l0,-86.2" class="g1_82" />
<path d="M839.3,855.1l0,-86.2" class="g1_82" />
<path d="M89.4,855.7l165.5,0" class="g1_82" />
<path d="M254.9,855.7l585,0" class="g1_82" />
<image preserveAspectRatio="none" x="88" y="146" width="415" height="208" xlink:href="img/1.png" />
<path d="M89.9,147.4l411.4,0l0,205.1l-411.4,0l0,-205.1Z" class="g2_82" />
</svg>